<svg width="1684" height="2528" viewBox="0 0 1684 2528" fill="none" xmlns="http://www.w3.org/2000/svg">
<path d="M723.5 966L680.5 1004V1053.5L711 1062.5L779 1027L811 1008L807.5 966L817 937L789.5 903L756 926L772 954.5L750 981L723.5 966Z" stroke="black"/>
<path d="M921.155 1027L842 920.718L933.976 820L1007 936.855L921.155 1027Z" stroke="black"/>
<path d="M607.5 1304.5V1425L630.5 1449.5L684 1388.5L666 1441L711 1512L766.5 1463.5L813.5 1364L827.5 1178L813.5 1141.5L778 1113L729.5 1104.5L666 1125.5L607.5 1189.5V1304.5Z" stroke="black"/>
<path d="M942.5 1290.5L901.5 1341.5H891.5V1564.5L942.5 1492L961 1509H1003.5L1045 1483.5V1412.5L1028 1358.5L1003.5 1321.5L942.5 1290.5Z" stroke="black"/>
</svg>
