<svg xmlns="http://www.w3.org/2000/svg" width="262.1" height="51.79" viewBox="0 0 262.1 51.79"><g transform="translate(-0.01)"><path d="M130.99,31.33H121.7L115,24.97H76.36v1.29a5.07,5.07,0,0,1-5.07,5.07H69.73V18.47h6.63l41.57.01A5.865,5.865,0,0,0,123.39,15a5.93,5.93,0,0,0,.45-2.05,6.151,6.151,0,0,0-.27-1.6,5.99,5.99,0,0,0-5.76-4.02H69.74a6.487,6.487,0,0,1,6.5-6.5h41.78a11.361,11.361,0,0,1,6.51,1.91,11.855,11.855,0,0,1,3.14,3.19c2.53,3.79,2.54,10.23-.03,14a11.715,11.715,0,0,1-3.11,3.14,8.778,8.778,0,0,1-1.02.6l7.47,7.65Z" fill="#d6f200"/><path d="M262.11.84V7H235.83V25.8a5.07,5.07,0,0,1-5.07,5.07H229.2V.84Z" fill="#d6f200"/><path d="M195.58,19.94a11.819,11.819,0,0,1-3.1,3.14,11.559,11.559,0,0,1-6.52,1.9H144.31v1.29a5.07,5.07,0,0,1-5.07,5.07h-1.56V18.48h48.19a5.872,5.872,0,0,0,5.46-3.47,6.169,6.169,0,0,0,.44-2.05,6.151,6.151,0,0,0-.27-1.6,5.981,5.981,0,0,0-5.76-4.02H137.67a6.5,6.5,0,0,1,6.5-6.5h41.79a11.4,11.4,0,0,1,6.51,1.91,11.811,11.811,0,0,1,3.13,3.19c2.53,3.79,2.53,10.23-.03,14" fill="#d6f200"/><path d="M202.07,7.47h0A6.632,6.632,0,0,1,208.7.84h16.44V7.47Z" fill="#d6f200"/><path d="M81.04,51.08a.827.827,0,0,1-.5.61c0,.01-.02.01-.03.02-.12.05-1.6.07-3.36.07-2.25,0-4.98-.03-5.95-.05a.633.633,0,0,1-.36-.01h0a.427.427,0,0,1-.12-.06,1.761,1.761,0,0,1-.2-.13.584.584,0,0,1-.13-.14q-.13-.23-.13-6.74l.02-6.37a.592.592,0,0,1,.32-.53.913.913,0,0,1,1.15.08.663.663,0,0,1,.24.49l.02,11.8,8.3.02a.607.607,0,0,1,.45.2l.07.07a.79.79,0,0,1,.22.67" fill="#d6f200"/><path d="M105.74,50.94a.837.837,0,0,1-.75.81,2.116,2.116,0,0,1-.24.02c-.48,0-.65-.39-1.31-2.01l-.08-.16c-.24-.62-.52-1.27-.7-1.73l-.22-.52c-.13-.34-.95-2.28-1.8-4.32-.4-.98-.74-1.79-1-2.41-.24.56-.54,1.29-.87,2.07-.75,1.75-1.86,4.39-2.47,5.88-1.15,2.73-1.21,2.81-1.33,2.94-.04.04-.08.07-.11.1a.869.869,0,0,1-.9.07.792.792,0,0,1-.48-.71q0-.18,2.76-6.76l.28-.66c.39-.94.81-1.93,1.15-2.76.3-.72.55-1.31.68-1.6.52-1.28.6-1.34.71-1.44a.93.93,0,0,1,1.14,0c.13.1.23.23.45.76,1.12,2.77,2.28,5.53,3.29,7.9.61,1.5,1.27,3.07,1.45,3.47l.18.46a1.558,1.558,0,0,1,.19.61" fill="#d6f200"/><path d="M130.03,46.51a4.967,4.967,0,0,0-3.95-3.54,3.521,3.521,0,0,0,.76-1.61,3.685,3.685,0,0,0-.09-1.52,3.441,3.441,0,0,0-2.66-2.23,24.581,24.581,0,0,0-2.61-.07,10.052,10.052,0,0,0-2.5.08.972.972,0,0,0-.47.42c-.07.19-.08.19-.04,5.58l.02,5.27a.589.589,0,0,0,.22.47l.09.07a.864.864,0,0,0,1.12.02l.09-.08a.6.6,0,0,0,.22-.47l-.03-4.56a.078.078,0,0,1,.05.02,13.551,13.551,0,0,0,2.26.06,22.132,22.132,0,0,1,2.91.08,3.582,3.582,0,0,1,2.73,1.92,2.223,2.223,0,0,1-.47,2.4,4.006,4.006,0,0,1-1.89,1.09l-.11.04a25.013,25.013,0,0,1-3.51.15l-2.97.02a.728.728,0,0,0-.4.15.762.762,0,0,0-.35.6.891.891,0,0,0,.39.74.652.652,0,0,0,.39.13h2.83c2.47,0,2.92,0,3.23-.04a6.332,6.332,0,0,0,3.13-1.26,4.287,4.287,0,0,0,1.61-2.49,4.53,4.53,0,0,0,0-1.47m-9.84-3.67c-.01-1.61-.01-2.9,0-3.6h1.55a11.124,11.124,0,0,1,2.08.06,1.607,1.607,0,0,1,1.21,1.05,1.863,1.863,0,0,1-1.3,2.27c-.34.14-.38.16-1.9.16a10.235,10.235,0,0,0-1.64.06" fill="#d6f200"/><path d="M152.8,38.39a7.662,7.662,0,0,1-.45,1.27.488.488,0,0,0-.03.07c-.25.55-.7,1.63-1.01,2.42-.28.65-.66,1.55-.94,2.25l-.2.46c-.86,2.06-1.41,3.34-1.87,4.41l-.31.73c-.6,1.5-.71,1.77-1.33,1.77a.97.97,0,0,1-.51-.17c-.23-.14-.31-.33-.84-1.61-.32-.74-.66-1.55-1.11-2.65l-1.22-2.92c-.29-.7-.68-1.61-.95-2.25-.2-.49-.45-1.08-.66-1.59-.15-.34-.28-.65-.38-.87-.47-1.16-.47-1.17-.47-1.32a.816.816,0,0,1,.64-.77.877.877,0,0,1,.89.26.647.647,0,0,1,.08.09c.07.1.29.61.48,1.05.2.5.79,1.91,1.3,3.13l2.23,5.32c.17.41.36.87.52,1.25.16-.39.35-.84.53-1.26l2.22-5.3c.52-1.23,1.11-2.64,1.32-3.14a11.042,11.042,0,0,1,.47-1.05.87.87,0,0,1,.95-.37.818.818,0,0,1,.66.78" fill="#d6f200"/><path d="M161.09,38.39a14.658,14.658,0,0,1-.68,1.86c-.37.86-1.01,2.37-1.41,3.34-.44,1-1.09,2.55-1.48,3.47-.19.44-.4.97-.62,1.48-.24.56-.45,1.1-.61,1.46-.64,1.54-.74,1.77-1.35,1.77a.847.847,0,0,1-.5-.17c-.23-.14-.31-.35-.84-1.61l-.99-2.36c-.38-.9-.71-1.72-.88-2.11-.22-.51-.45-1.08.02-1.47a.931.931,0,0,1,1.14,0,1.581,1.581,0,0,1,.39.65l.97,2.31c.21.5.41,1,.59,1.42.05.09.08.19.12.28.16-.39.36-.85.54-1.28.92-2.22,1.24-2.98,2.01-4.82.23-.55.48-1.14.67-1.57.12-.28.22-.51.26-.62a15.527,15.527,0,0,1,1.11-2.53.866.866,0,0,1,1.54.48" fill="#d6f200"/><path d="M186.66,43.34a7.351,7.351,0,0,0-7.42-5.8,7.662,7.662,0,0,0-7.26,5.04,6.728,6.728,0,0,0,.6,5.57,7.52,7.52,0,0,0,5.16,3.5c.23.04.54.07.73.09.22.02.43.03.66.03a7.734,7.734,0,0,0,6.66-3.67,6.174,6.174,0,0,0,.96-3.49,5.146,5.146,0,0,0-.08-1.27m-10.13-3.51a6.4,6.4,0,0,1,2.72-.64c.21,0,.41.01.62.03a5.92,5.92,0,0,1,3.76,1.86,5.205,5.205,0,0,1,1.27,4.64,5.818,5.818,0,0,1-5.01,4.35,8.181,8.181,0,0,1-1.4,0,5.615,5.615,0,0,1-5.01-4.46,6.543,6.543,0,0,1-.04-1.47,5.562,5.562,0,0,1,3.1-4.3" fill="#d6f200"/><path d="M211.71,50.9a.8.8,0,0,1-.34.65.922.922,0,0,1-.84.14.388.388,0,0,1-.11-.06c-.13-.06-.15-.07-2.02-1.95-2.25-2.25-2.86-2.85-3.07-3.07l-.86-.02c-1.07,0-1.33,0-1.56-.26a.825.825,0,0,1-.24-.58.8.8,0,0,1,.29-.63c.23-.19.28-.19,1.47-.19h1.13c.36,0,1.26-.06,1.51-.09a3.575,3.575,0,0,0,2.74-2.02,2.157,2.157,0,0,0,.1-.85c-.11-1.31-1.28-2.36-3.04-2.7-.17-.03-.65-.05-2.94-.05h-2.2v11.8a.633.633,0,0,1-.23.48l-.09.07a.706.706,0,0,1-.54.21,1,1,0,0,1-.33-.06.881.881,0,0,1-.45-.37.734.734,0,0,1-.09-.32V50.9c0-.53-.02-2.7-.04-6.27V38.28a.616.616,0,0,1,.25-.5l.16-.11a.63.63,0,0,1,.35-.11h2.88a17.954,17.954,0,0,1,3.82.14c2.46.5,4.24,2.34,4.24,4.39a3.852,3.852,0,0,1-.08.84,4.987,4.987,0,0,1-3.75,3.42c-.08.02-.18.04-.29.07l.57.57c.31.31.61.62.83.82.37.38.81.83,1.01,1.02.22.24.64.66.97.98.66.66.77.78.77,1.11" fill="#d6f200"/><path d="M235.4,50.99a.829.829,0,0,1-.84.79.75.75,0,0,1-.22-.02.463.463,0,0,1-.32-.13c-.18-.14-4.94-5.34-4.98-5.39a.877.877,0,0,1-.09-1.01.868.868,0,0,1,.84-.38c.3.02.48.21.91.65.13.15.34.38.56.62s.46.52.68.75c.45.5,1.19,1.29,1.64,1.78,1.83,1.97,1.85,1.99,1.82,2.35" fill="#d6f200"/><path d="M235.37,38.37c0,.4-.13.51-.71,1.01l-.24.21c-.19.16-.61.53-.95.82l-.22.19c-.39.34-.95.83-1.4,1.2l-.74.65c-.24.21-.44.39-.53.46-.18.14-.95.81-1.76,1.51-.91.78-1.76,1.51-1.98,1.7l-.16.14v4.8a.6.6,0,0,1-.16.41l-.08.07a.814.814,0,0,1-.63.25.7.7,0,0,1-.29-.04.632.632,0,0,1-.23-.12,1.046,1.046,0,0,1-.17-.19l-.02-.02a.613.613,0,0,0-.04-.06h.01c-.14-.34-.14-1.43-.14-6.71V38.3a.589.589,0,0,1,.22-.47.882.882,0,0,1,1.27-.02.8.8,0,0,1,.25.49v5.69l.03-.03c.57-.49,1.35-1.16,2.09-1.8.81-.7,1.57-1.35,1.99-1.71,1.04-.91,2.12-1.85,3.22-2.75a.507.507,0,0,1,.16-.09.887.887,0,0,1,.85.09.763.763,0,0,1,.36.66" fill="#d6f200"/><path d="M259.18,48.1c-.12,1.7-1.53,2.9-3.98,3.37a16.588,16.588,0,0,1-3.15.27,10.389,10.389,0,0,1-1.13-.04,16.943,16.943,0,0,1-2.53-.38.917.917,0,0,1-.8-.86.784.784,0,0,1,.38-.66.948.948,0,0,1,.88-.07,12.105,12.105,0,0,0,1.7.26,25.632,25.632,0,0,0,2.65.04c1.56-.1,4.18-.51,4.22-2.1a1.116,1.116,0,0,0-.12-.69c-.23-.43-.66-.72-1.56-1.09a14.586,14.586,0,0,0-2.74-.71c-2.03-.43-5.43-1.16-5.56-3.81a2.739,2.739,0,0,1,1.09-2.24c1.91-1.66,5.17-1.84,6.49-1.84.11,0,2.66.01,3.36.58a.774.774,0,0,1,.27.87.844.844,0,0,1-.82.58,1.882,1.882,0,0,1-.59-.13,10.079,10.079,0,0,0-2.36-.25c-2.13,0-4.71.61-5.5,1.77a.721.721,0,0,0-.19.6v.25c0,.01.04.07.04.08.43,1.06,2.43,1.52,3.62,1.79l.14.03c1.96.43,2.37.52,2.71.64a6.3,6.3,0,0,1,2.79,1.6,2.864,2.864,0,0,1,.68,2.12" fill="#d6f200"/><path d="M180.75,44.65a1.52,1.52,0,1,1-1.52-1.52,1.519,1.519,0,0,1,1.52,1.52" fill="#d6f200"/><path d="M101.13,47.75a1.52,1.52,0,1,1-1.52-1.52,1.519,1.519,0,0,1,1.52,1.52" fill="#d6f200"/><path d="M34.42,36.16c.48-3.33-.39-5.74-2.49-8.98-1.17-1.82-6.21-9.25-7.24-11.21-1.93-3.68-1.07-7.08,1.03-10.61C28.21,1.18,27.32,2.68,28.9,0c2.49,4.25,10.89,17.67,12.39,20.59a10.913,10.913,0,0,1-6.88,15.54l.02.02Z" fill="#d6f200"/><path d="M23.89,36.45c2.63,2.11,5.14,2.58,9,2.43,2.16-.09,11.13-.64,13.33-.53,4.15.21,6.64,2.68,8.61,6.28,2.33,4.27,1.49,2.74,2.99,5.46-4.92-.02-20.75.39-24.03.19a10.921,10.921,0,0,1-9.88-13.83h-.03Z" fill="#d6f200"/><path d="M28.83,27.6c-3.14,1.22-4.81,3.16-6.61,6.57-1.01,1.91-5.03,9.94-6.23,11.8-2.26,3.48-5.65,4.4-9.75,4.29-4.86-.12-3.12-.08-6.23-.15C2.5,45.86,10.09,31.96,11.9,29.23a10.919,10.919,0,0,1,16.92-1.61v-.03Z" fill="#d6f200"/><path d="M32.84,33.42a3.75,3.75,0,1,1-3.75-3.75,3.751,3.751,0,0,1,3.75,3.75" fill="#d6f200"/></g></svg>